# xmcd CD database file
#
# Track frame offsets:
#	150
#	21673
#	52973
#	85843
#	111716
#	140754
#	174867
#	204575
#	234513
#	265924
#	288387
#	315535
#
# Disc length: 4581 seconds
#
# Revision: 0
# Processed by: cddbd v1.5.2PL0 Copyright (c) Steve Scherf et al.
# Submitted via: CDex 1.51
#
DISCID=b011e30c
DTITLE=Ruben Blades - Lo mejor
DYEAR=2006
DGENRE=Salsa
TTITLE0=Adan Garcia
TTITLE1=Tiburon
TTITLE2=Pedro Navajas
TTITLE3=Amor y control
TTITLE4=Sin tu cariño
TTITLE5=Sorpresa
TTITLE6=Plastico
TTITLE7=La mora
TTITLE8=Dime
TTITLE9=Decisiones
TTITLE10=Ligia Elena
TTITLE11=Juan Pachanga
EXTD=YEAR: 2006
EXTT0=
EXTT1=
EXTT2=
EXTT3=
EXTT4=
EXTT5=
EXTT6=
EXTT7=
EXTT8=
EXTT9=
EXTT10=
EXTT11=
PLAYORDER=
